{"title":"Fall Out Boy - My Songs Know What You Did In The Dark [Light Em ","uid":8436798,"size":48093656,"categoryP":"video","categoryS":"music_videos","magnet":"?xt=urn:btih:bd450b514e53f9ff60148a7e27808d1b3f299b7f&amp;dn=Fall+Out+Boy+-+My+Songs+Know+What+You+Did+In+The+Dark+%5BLight+Em+&amp;tr=udp%3A%2F%2Ftracker.openbittorrent.com%3A80&amp;tr=udp%3A%2F%2Fopen.demonii.com%3A1337&amp;tr=udp%3A%2F%2Ftracker.coppersurfer.tk%3A6969&amp;tr=udp%3A%2F%2Fexodus.desync.com%3A6969","seeders":0,"leechers":0,"uploader":"Sbyky","files":-1,"time":1367665198,"description":"[IMG]http://www.shotpix.com/images/21393026732238710453.jpg[/IMG]\n\nGeneral\nComplete name                            : Fall Out Boy - My Songs Know What You Did In The Dark [Light Em Up] 720p [Sbyky].mp4\nFormat                                   : MPEG-4\nFormat profile                           : Base Media / Version 2\nCodec ID                                 : mp42\nFile size                                : 45.9 MiB\nDuration                                 : 3mn 7s\nOverall bit rate mode                    : Variable\nOverall bit rate                         : 2 050 Kbps\nEncoded date                             : UTC 2013-02-07 07:40:38\nTagged date                              : UTC 2013-02-07 07:40:38\n\nVideo\nID                                       : 1\nFormat                                   : AVC\nFormat/Info                              : Advanced Video Codec\nFormat profile                           : &lt;a class=&quot;__cf_email__&quot; href=&quot;/cdn-cgi/l/email-protection&quot; data-cfemail=&quot;125a7b757a525e213c23&quot;&gt;[email&amp;#160;protected]&lt;/a&gt;&lt;script data-cfhash='f9e31' type=&quot;text/javascript&quot;&gt;\n/* &lt;![CDATA[ */!function(){try{var t=&quot;currentScript&quot;in document?document.currentScript:function(){for(var t=document.getElementsByTagName(&quot;script&quot;),e=t.length;e--;)if(t[e].getAttribute(&quot;data-cfhash&quot;))return t[e]}();if(t&amp;&amp;t.previousSibling){var e,r,n,i,c=t.previousSibling,a=c.getAttribute(&quot;data-cfemail&quot;);if(a){for(e=&quot;&quot;,r=parseInt(a.substr(0,2),16),n=2;a.length-n;n+=2)i=parseInt(a.substr(n,2),16)^r,e+=String.fromCharCode(i);e=document.createTextNode(e),c.parentNode.replaceChild(e,c)}t.parentNode.removeChild(t);}}catch(u){}}()/* ]]&gt; */&lt;/script&gt;\nFormat settings, CABAC                   : Yes\nFormat settings, ReFrames                : 1 frame\nCodec ID                                 : avc1\nCodec ID/Info                            : Advanced Video Coding\nDuration                                 : 3mn 7s\nBit rate                                 : 1 856 Kbps\nMaximum bit rate                         : 6 200 Kbps\nWidth                                    : 1 280 pixels\nHeight                                   : 720 pixels\nDisplay aspect ratio                     : 16:9\nFrame rate mode                          : Constant\nFrame rate                               : 23.976 fps\nColor space                              : YUV\nChroma subsampling                       : 4:2:0\nBit depth                                : 8 bits\nScan type                                : Progressive\nBits/(Pixel*Frame)                       : 0.084\nStream size                              : 41.5 MiB (91%)\nTagged date                              : UTC 2013-02-07 07:40:42\n\nAudio\nID                                       : 2\nFormat                                   : AAC\nFormat/Info                              : Advanced Audio Codec\nFormat profile                           : LC\nCodec ID                                 : 40\nDuration                                 : 3mn 7s\nBit rate mode                            : Variable\nBit rate                                 : 192 Kbps\nMaximum bit rate                         : 202 Kbps\nChannel(s)                               : 2 channels\nChannel positions                        : Front: L R\nSampling rate                            : 44.1 KHz\nCompression mode                         : Lossy\nStream size                              : 4.30 MiB (9%)\nTitle                                    : IsoMedia File Produced by Google, 5-11-2011\nEncoded date                             : UTC 2013-02-07 07:40:41\nTagged date                              : UTC 2013-02-07 07:40:42\n\nShared By Sbyky\n[IMG]http://www.shotpix.com/images/76014917432015785852.gif[/IMG]\n[IMG]http://www.shotpix.com/images/54100788659511547411.gif[/IMG]","torrent":{"xt":"urn:btih:bd450b514e53f9ff60148a7e27808d1b3f299b7f","amp;dn":"Fall+Out+Boy+-+My+Songs+Know+What+You+Did+In+The+Dark+%5BLight+Em+","amp;tr":["udp%3A%2F%2Ftracker.openbittorrent.com%3A80","udp%3A%2F%2Fopen.demonii.com%3A1337","udp%3A%2F%2Ftracker.coppersurfer.tk%3A6969","udp%3A%2F%2Fexodus.desync.com%3A6969"],"infoHash":"bd450b514e53f9ff60148a7e27808d1b3f299b7f","infoHashBuffer":{"type":"Buffer","data":[189,69,11,81,78,83,249,255,96,20,138,126,39,128,141,27,63,41,155,127]},"announce":[],"urlList":[]}}